<svg width="5035" height="1942" viewBox="0 0 5035 1942" fill="none" xmlns="http://www.w3.org/2000/svg">
<path d="M2339.98 106.555C2339.31 107.223 2338.65 225.135 2338.65 368.099V627.973H2361.84H2385.02L2385.68 404.174L2386.68 180.709L2545.98 403.506L2704.96 626.302L2727.15 627.305L2749.34 628.307V366.763V105.219H2727.81H2706.28V324.675C2706.28 445.593 2705.29 544.466 2703.97 544.132C2701.98 544.132 2401.91 127.265 2391.31 109.896C2388.99 105.887 2343.62 103.215 2339.98 106.555Z" fill="black"/>
<path d="M3305.76 180.375V253.862H3290.85H3275.95V275.573V297.285H3290.85H3305.76V462.629V627.973H3327.29H3348.81V462.629V297.619L3392.2 296.617L3435.92 295.615V275.573V255.532L3392.2 254.53L3348.81 253.528V180.375V106.889H3327.29H3305.76V180.375Z" fill="black"/>
<path d="M513.736 375.781V638.327L536.258 637.325L558.448 636.323L559.111 422.879C559.442 305.635 560.436 209.101 561.098 208.433C561.429 207.765 608.129 302.295 664.433 418.537C720.737 534.779 768.098 631.647 769.754 633.651C771.41 635.989 778.366 637.993 784.99 637.993C799.231 637.993 785.983 662.711 906.209 412.524C951.915 316.992 993.315 231.147 998.283 222.129L1006.89 205.427L1007.23 326.011C1007.23 392.149 1008.22 489.685 1009.54 542.127L1011.53 637.993H1032.73H1053.59V375.781V113.57H1027.76H1001.93L933.036 256.199C894.948 335.03 846.593 434.904 825.727 478.662C804.531 522.085 785.983 557.492 784.327 556.824C782.34 556.156 732.991 456.616 674.369 335.698L567.391 115.24L540.564 114.238L513.736 113.235V375.781Z" fill="black"/>
<path d="M2974.56 242.504C2905.67 257.535 2851.35 311.982 2833.46 384.132C2825.85 413.86 2828.5 471.313 2838.76 500.039C2858.3 556.49 2904.01 601.25 2959.65 618.953C2981.84 625.968 2988.47 626.302 3098.09 626.302H3213.35L3213.02 512.398C3212.69 385.134 3211.7 376.783 3190.83 336.366C3151.75 261.543 3063.32 223.13 2974.56 242.504ZM3073.25 287.932C3082.53 291.606 3090.48 295.614 3090.48 296.95C3090.48 297.952 3092.8 343.38 3095.44 397.159C3098.43 450.937 3100.08 495.697 3099.42 496.365C3099.09 497.033 3080.87 479.664 3059.01 457.618L3019.93 417.868L3017.28 370.102C3015.96 343.714 3014.63 311.982 3014.63 299.623L3014.3 276.575L3035.17 278.913C3046.43 280.249 3063.65 284.257 3073.25 287.932ZM2992.11 282.921C2993.1 284.591 2994.76 310.311 2995.75 340.708L2998.07 395.823L2959.98 357.409C2938.79 336.366 2921.56 317.994 2921.56 316.658C2921.56 312.316 2951.7 293.276 2968.93 287.264C2989.13 279.915 2990.12 279.915 2992.11 282.921ZM3153.4 359.08C3162.35 377.451 3163.67 383.798 3166.65 432.566C3170.63 496.365 3170.96 564.507 3167.32 564.507C3165.99 564.507 3155.06 554.82 3143.47 542.795L3121.94 520.749L3116.97 417.2C3114.32 360.082 3112.67 312.65 3113.33 311.982C3116.97 308.307 3144.79 341.042 3153.4 359.08ZM2979.86 406.511C3020.59 446.261 3054.04 479.998 3054.04 481.668C3054.04 483.338 3014.3 484.006 2965.61 483.672L2876.85 482.67L2872.88 460.958C2867.91 435.572 2870.23 407.18 2878.84 381.125C2885.13 363.088 2900.37 334.027 2903.68 334.027C2904.67 334.027 2939.12 366.762 2979.86 406.511ZM3114.32 543.463C3135.85 565.175 3153.4 583.88 3153.4 585.216C3153.4 589.225 3022.58 588.223 2997.74 584.548C2966.94 579.538 2934.15 562.168 2907.65 536.782C2895.07 524.757 2885.13 512.732 2885.13 509.726C2885.13 505.05 2895.07 504.382 2980.19 504.382H3075.57L3114.32 543.463Z" fill="black"/>
<path d="M4025.46 246.179L3951.6 247.181V437.577V627.973H3973.13H3994.65V457.618V287.264H4055.26H4115.54L4114.88 266.555C4114.55 246.847 4113.89 245.511 4106.6 245.511C4102.63 245.177 4065.86 245.845 4025.46 246.179Z" fill="black"/>
<path d="M1275.83 252.525C1231.78 264.55 1181.77 304.967 1160.57 345.719C1131.43 402.169 1130.43 471.981 1157.59 530.102C1172.83 562.169 1207.93 598.912 1238.07 614.277C1278.15 634.653 1286.1 635.655 1410.63 637.325L1524.23 638.661L1523.24 517.075C1522.24 396.491 1521.91 395.823 1513.63 373.777C1501.05 341.042 1488.79 321.335 1467.26 299.957C1443.75 276.909 1413.28 259.206 1384.79 252.525C1357.64 245.844 1299.68 245.844 1275.83 252.525ZM1374.53 293.61C1401.02 301.961 1419.57 313.318 1438.45 333.026C1472.23 368.099 1477.53 392.817 1477.53 516.741V594.569H1398.37C1308.62 594.569 1293.05 592.565 1260.26 576.198C1155.93 524.758 1153.28 366.763 1255.63 306.303C1288.08 287.264 1337.43 281.919 1374.53 293.61Z" fill="black"/>
<path d="M4304.66 252.525C4259.28 263.548 4210.6 301.962 4188.74 344.049C4171.85 376.45 4166.88 394.153 4164.56 430.896C4157.6 544.132 4241.73 634.653 4354.01 635.655C4407 636.323 4451.71 617.952 4489.8 580.207C4509.67 560.165 4541.14 515.071 4541.14 506.721C4541.14 505.384 4530.87 504.382 4518.61 504.382H4496.09L4481.85 526.428C4411.3 634.653 4243.05 606.929 4211.59 481.668C4208.61 470.312 4207.29 459.289 4208.28 457.618C4209.6 455.614 4270.21 454.278 4378.52 454.278H4547.1L4548.75 445.593C4551.4 431.564 4545.44 394.153 4537.16 370.437C4515.96 312.316 4466.95 267.557 4407 252.191C4382.49 245.845 4331.15 246.179 4304.66 252.525ZM4399.71 293.945C4450.72 309.978 4493.77 355.406 4503.38 403.506L4505.7 414.195H4357.32H4208.94L4210.93 401.836C4214.24 382.128 4230.14 354.404 4249.68 334.362C4289.75 293.611 4348.05 277.911 4399.71 293.945Z" fill="black"/>
<path d="M1614.98 257.869C1613.98 260.208 1613.65 346.387 1613.98 449.267L1614.98 636.323L1635.84 637.325L1656.38 638.327V467.639V296.951L1725.27 297.953C1788.86 298.955 1794.82 299.623 1807.74 306.638C1840.86 324.341 1855.43 346.721 1861.72 389.81C1863.38 402.169 1865.03 463.297 1865.03 525.092V637.993H1884.91H1904.78V531.772C1904.78 473.651 1906.1 413.192 1908.09 398.161C1913.39 351.397 1931.94 321.001 1964.39 305.969C1976.32 300.291 1985.92 298.955 2012.42 298.955C2051.5 298.955 2064.75 304.299 2085.95 328.683C2109.79 356.074 2111.12 364.758 2112.44 510.395L2114.1 638.327L2134.3 637.325L2154.84 636.323V511.063C2154.5 374.779 2152.85 359.748 2134.63 323.673C2099.19 252.525 1997.18 231.815 1924.98 281.251C1916.7 286.93 1904.12 297.619 1897.49 304.967L1885.24 317.994L1868.68 299.957C1850.13 279.247 1828.27 266.22 1800.45 258.872C1774.62 252.191 1617.3 251.523 1614.98 257.869Z" fill="black"/>
<path d="M3511.1 256.2C3511.1 257.87 3511.1 310.98 3511.1 374.78C3511.1 478.328 3512.1 493.359 3517.73 516.073C3529.65 562.503 3552.83 595.906 3586.62 613.943C3649.21 647.68 3735.99 642.67 3788.32 602.252C3796.27 596.24 3803.22 591.23 3804.21 591.23C3805.21 591.23 3805.87 599.58 3805.87 609.601V627.973H3827.4H3848.93V440.917V253.861H3827.73H3806.2L3805.21 379.79C3803.88 528.432 3803.88 527.096 3771.43 559.497C3747.58 583.213 3729.69 590.896 3692.6 593.568C3630.66 598.244 3586.28 575.864 3565.42 529.434C3553.83 503.38 3550.85 468.975 3550.85 357.076V253.861H3530.97C3520.04 253.861 3511.1 254.864 3511.1 256.2Z" fill="black"/>
<path d="M1454.22 850.434C1385 863.127 1312.13 909.557 1271.73 967.01C1197.21 1073.23 1190.58 1219.53 1255.5 1330.43C1274.71 1362.83 1322.07 1412.27 1350.22 1428.97C1381.02 1447.34 1420.77 1463.38 1453.23 1470.06C1480.72 1475.73 1499.59 1476.4 1655.59 1476.4H1827.48L1825.5 1313.4C1823.51 1150.39 1820.53 1091.94 1811.59 1053.19C1805.62 1027.13 1785.75 987.052 1765.55 959.661C1727.46 908.555 1658.24 865.131 1594.32 851.77C1556.89 843.754 1493.3 843.42 1454.22 850.434ZM1568.15 1050.52V1108.97L1627.11 1109.64L1685.73 1110.64V1160.75V1210.85L1627.11 1211.85L1568.15 1212.52L1567.49 1271.98L1566.5 1331.1H1518.47H1470.45L1469.46 1271.98L1468.79 1212.52L1409.84 1211.85L1351.22 1210.85V1160.75V1110.64L1410.17 1109.64L1468.79 1108.97V1050.85C1468.79 1019.12 1469.46 992.396 1470.12 991.728C1470.78 991.06 1493.3 990.726 1519.8 991.394L1568.15 992.396V1050.52Z" fill="#D52D25"/>
<path d="M2121.05 948.305C2089.92 956.99 2071.7 966.342 2054.48 983.378C2029.64 1007.09 2020.37 1032.48 2020.37 1076.91C2020.37 1146.38 2054.15 1180.79 2165.77 1225.55C2229.69 1251.27 2255.52 1268.97 2269.76 1297.7C2278.37 1314.07 2281.35 1349.14 2275.72 1368.85C2270.76 1387.89 2250.22 1410.27 2229.69 1419.28C2181.66 1439.99 2100.19 1435.32 2044.21 1408.93C2032.95 1403.25 2022.36 1400.24 2020.7 1401.91C2017.72 1405.25 2007.45 1435.99 2007.45 1441.66C2007.45 1447.68 2053.82 1464.71 2086.61 1471.06C2122.05 1478.07 2182.66 1478.07 2215.11 1471.06C2290.96 1455.36 2327.39 1415.94 2331.37 1345.46C2334.01 1292.69 2315.14 1252.6 2274.07 1224.21C2263.14 1216.86 2226.71 1198.83 2192.92 1184.13C2120.72 1152.73 2096.21 1137.36 2081.97 1114.32C2073.36 1099.62 2072.04 1094.94 2072.04 1072.56C2072.04 1050.85 2073.36 1044.84 2081.31 1031.14C2091.58 1013.44 2112.77 997.741 2134.96 991.395C2142.25 989.39 2163.78 987.386 2182.99 987.386C2222.4 987.386 2250.88 993.733 2278.37 1008.76L2295.6 1018.12L2300.23 1009.43C2302.88 1004.42 2307.19 994.735 2309.84 987.72L2315.14 975.361L2298.91 967.01C2268.44 951.311 2237.64 944.631 2189.61 943.295C2152.85 942.292 2140.59 942.961 2121.05 948.305Z" fill="#D52D25"/>
<path d="M3762.81 955.987C3733.67 972.02 3719.76 1012.77 3734 1040.83C3741.62 1055.86 3760.5 1071.23 3776.39 1075.57C3829.05 1089.93 3873.1 1034.15 3848.93 983.711C3833.69 951.979 3793.95 939.286 3762.81 955.987ZM3813.49 961.665C3826.74 966.676 3841.31 984.045 3844.95 999.745C3858.2 1052.19 3796.27 1089.93 3756.52 1053.52C3719.1 1019.79 3741.62 958.993 3791.63 958.659C3799.25 958.659 3809.18 959.995 3813.49 961.665Z" fill="#D52D25"/>
<path d="M3769.44 1013.77C3769.44 1042.84 3770.43 1048.85 3774.41 1048.85C3778.05 1048.85 3779.37 1044.84 3779.37 1033.82C3779.37 1019.45 3779.71 1018.79 3788.65 1018.79C3799.58 1018.79 3807.53 1026.47 3810.84 1039.49C3812.16 1044.84 3815.48 1048.85 3817.79 1048.85C3823.42 1048.85 3821.11 1034.82 3813.49 1022.79C3809.18 1015.78 3809.18 1014.11 3813.82 1009.1C3828.06 993.399 3815.48 978.702 3788.32 978.702H3769.44V1013.77ZM3808.52 995.069C3810.18 1005.09 3801.9 1012.1 3788.65 1012.1C3780.04 1012.1 3779.37 1011.1 3779.37 998.409V985.048L3793.62 986.05C3805.54 987.053 3807.53 988.055 3808.52 995.069Z" fill="#D52D25"/>
<path d="M2984.49 1013.77V1038.83H3009.33H3034.17V1013.77V988.722H3009.33H2984.49V1013.77Z" fill="#D52D25"/>
<path d="M3209.71 1080.25C3187.85 1086.59 3173.28 1094.61 3157.38 1109.97C3130.55 1136.36 3121.94 1183.46 3138.17 1217.53C3152.41 1247.93 3166.98 1258.95 3227.92 1286.01C3307.08 1321.08 3319.34 1329.76 3325.96 1354.15C3333.58 1382.88 3322.98 1407.26 3296.48 1420.29C3282.24 1427.3 3276.61 1427.97 3231.24 1427.97C3185.53 1427.63 3179.9 1426.97 3159.04 1418.62C3142.81 1412.27 3136.18 1410.93 3135.19 1413.94C3134.53 1416.28 3131.55 1425.96 3128.9 1435.65L3123.93 1453.35L3135.52 1458.37C3172.61 1474.06 3249.45 1479.74 3289.2 1470.06C3351.13 1454.69 3376.97 1424.96 3376.97 1369.51C3376.97 1310.06 3357.76 1290.35 3257.07 1247.93C3194.8 1221.21 3178.58 1205.17 3180.89 1171.44C3182.22 1149.39 3192.16 1136.03 3214.68 1125.34C3235.54 1115.65 3293.17 1116.65 3323.97 1127.01C3336.89 1131.69 3347.49 1134.69 3348.15 1134.02C3348.48 1133.69 3351.46 1124.67 3354.44 1114.32C3358.09 1101.29 3358.75 1094.27 3356.43 1091.94C3354.44 1089.93 3341.86 1085.59 3328.61 1081.92C3300.46 1074.57 3233.89 1073.57 3209.71 1080.25Z" fill="#D52D25"/>
<path d="M3521.04 1080.25C3468.38 1094.94 3438.24 1136.03 3442.21 1187.14C3446.19 1235.24 3468.71 1255.94 3562.11 1296.03C3580.32 1303.71 3600.53 1313.4 3607.15 1317.74C3632.65 1334.11 3643.25 1355.49 3638.95 1382.21C3636.3 1398.91 3627.68 1409.6 3608.48 1419.62C3593.24 1427.3 3589.27 1427.97 3542.57 1427.97C3496.86 1427.64 3491.23 1426.97 3470.7 1418.95L3448.17 1409.93L3442.21 1430.64C3438.57 1442 3436.91 1452.35 3437.91 1453.69C3439.23 1455.03 3448.84 1459.37 3459.77 1463.04C3488.25 1473.06 3541.24 1477.74 3575.36 1473.4C3649.21 1464.38 3685.65 1433.98 3689.29 1378.2C3690.94 1349.81 3686.97 1332.77 3673.39 1312.06C3659.48 1291.02 3636.96 1276.65 3579.33 1252.27C3552.17 1240.91 3523.69 1226.55 3516.4 1220.87C3481.96 1194.82 3482.95 1153.73 3518.06 1130.02C3530.97 1121.33 3534.95 1120.66 3570.72 1119.66C3604.5 1118.33 3611.79 1119.33 3633.65 1126.68C3647.23 1131.35 3659.48 1134.69 3660.47 1134.02C3661.47 1133.36 3664.12 1124 3666.44 1113.65C3671.73 1090.27 3670.08 1088.26 3636.63 1080.91C3609.47 1074.57 3542.57 1074.23 3521.04 1080.25Z" fill="#D52D25"/>
<path d="M2375.08 1086.59C2375.08 1088.93 2383.36 1122 2393.3 1160.41C2415.16 1242.58 2443.31 1328.76 2471.13 1397.91C2482.39 1425.3 2492.99 1452.02 2494.98 1457.03C2498.29 1466.05 2498.95 1466.38 2522.47 1466.38H2546.98L2559.89 1431.98C2586.06 1363.84 2603.28 1313.4 2620.17 1255.94C2629.45 1223.88 2638.06 1195.15 2639.05 1192.48C2640.04 1189.81 2644.68 1199.49 2648.99 1214.19C2668.2 1278.99 2698 1368.51 2715.89 1414.61L2735.1 1464.71L2758.28 1465.71L2781.8 1466.72L2797.36 1428.97C2831.81 1346.47 2856.98 1272.31 2883.15 1177.11C2893.41 1140.7 2902.36 1104.3 2903.68 1096.28L2906 1082.25H2882.81H2859.96L2854 1107.97C2832.14 1203.17 2768.22 1406.26 2759.61 1406.26C2756.63 1406.26 2719.53 1297.7 2701.32 1235.9C2693.04 1207.18 2681.11 1161.41 2675.15 1134.02L2664.22 1083.92H2643.36H2622.49L2604.94 1152.06C2579.77 1250.27 2539.36 1381.54 2527.44 1402.58C2525.12 1406.92 2523.79 1406.26 2520.81 1397.91C2490.34 1320.08 2461.2 1229.56 2442.98 1155.4C2436.36 1129.01 2429.73 1101.62 2427.74 1094.61L2424.43 1082.25H2399.92C2382.04 1082.25 2375.08 1083.59 2375.08 1086.59Z" fill="#D52D25"/>
<path d="M2986.15 1086.26C2985.16 1088.6 2984.82 1175.44 2985.16 1279.33L2986.15 1468.05L3010.33 1469.05L3034.17 1470.06V1275.99V1082.25H3010.99C2995.42 1082.25 2987.14 1083.59 2986.15 1086.26Z" fill="#D52D25"/>
<path d="M149.972 1675.2C104.742 1686.25 81.1441 1723.75 92.5498 1766.38C99.2359 1790.46 112.608 1803.88 147.219 1822.04C190.875 1844.94 201.101 1859.15 189.695 1881.25C177.896 1904.54 143.286 1907.3 107.102 1887.96C87.8302 1877.7 85.0771 1879.28 85.0771 1902.17C85.0771 1931.38 138.173 1949.94 184.582 1936.91C201.494 1932.17 224.305 1913.62 232.565 1897.83C246.33 1870.59 243.184 1833.49 224.699 1811.78C219.586 1805.46 201.887 1793.62 185.762 1785.33C149.972 1767.17 138.959 1756.12 138.959 1739.54C138.959 1713.88 171.603 1704.02 203.067 1720.2C211.72 1724.54 220.372 1728.09 222.732 1728.09C224.699 1728.09 226.665 1719.41 226.665 1707.96C226.665 1689.02 225.879 1687.83 213.293 1682.7C198.348 1676.38 162.557 1672.04 149.972 1675.2Z" fill="#D92C1E"/>
<path d="M777.84 1675.2C739.375 1684.67 718.965 1709.92 718.965 1748.59C718.965 1780.95 733.095 1799.89 772.737 1820.8C811.987 1841.32 819.052 1848.42 819.052 1864.99C819.052 1883.14 813.95 1891.82 799.427 1897.74C784.905 1903.66 760.57 1900.5 737.805 1889.46C717.787 1879.59 713.077 1881.96 713.077 1900.11C713.077 1924.18 741.73 1941.14 782.55 1941.14C832.005 1941.14 870.077 1904.45 870.077 1856.71C870.077 1827.11 844.565 1798.31 802.175 1779.37C779.41 1769.11 766.85 1754.9 766.85 1739.52C766.85 1713.87 799.427 1704 830.827 1720.18C839.462 1724.52 848.097 1728.07 850.452 1728.07C852.415 1728.07 854.377 1719.39 854.377 1707.95C854.377 1689.01 853.592 1687.83 841.032 1682.7C826.117 1676.38 790.4 1672.04 777.84 1675.2Z" fill="#D92C1E"/>
<path d="M952.546 1676.21C935.752 1680.56 921.302 1691.62 909.977 1708.62C901.775 1720.08 900.994 1726.01 902.166 1750.12C903.728 1786.48 913.882 1800.31 952.936 1820.87C986.132 1838.26 994.724 1844.98 999.411 1857.62C1004.49 1870.67 994.334 1893.2 980.665 1898.33C966.605 1903.87 938.877 1899.91 920.131 1890.03C911.929 1885.69 903.337 1882.13 901.385 1882.13C895.917 1882.13 892.793 1903.47 897.089 1914.54C903.728 1932.72 944.735 1945.37 980.665 1939.83C1032.61 1931.93 1063.46 1875.8 1042.37 1828.38C1034.17 1810.2 1018.94 1797.15 987.304 1781.34C957.232 1766.32 948.25 1756.84 948.25 1741.03C948.25 1722.85 959.966 1712.18 979.493 1712.18C988.476 1712.18 1002.14 1715.73 1010.74 1720.08C1019.33 1724.43 1027.92 1727.99 1030.26 1727.99C1032.22 1727.99 1034.17 1719.29 1034.17 1707.83C1034.17 1688.86 1033.78 1687.67 1019.72 1682.14C1002.14 1674.63 970.511 1671.86 952.546 1676.21Z" fill="#D92C1E"/>
<path d="M263.131 1682.48C261.172 1688.03 312.894 1909.43 320.731 1928.44C324.257 1936.76 327 1937.55 351.686 1937.55C374.02 1937.55 379.898 1936.36 382.64 1930.42C384.6 1926.86 394.004 1887.65 403.016 1843.29C412.42 1799.32 421.432 1763.28 422.999 1763.28C426.918 1763.28 427.309 1764.86 446.509 1850.42C455.521 1890.81 464.142 1926.86 466.493 1930.42C471.586 1940.72 522.525 1940.72 527.619 1930.42C535.063 1915.77 588.353 1688.82 586.002 1682.48C584.043 1677.33 579.341 1676.14 564.843 1676.94L546.035 1678.12L525.659 1769.22C514.688 1819.13 505.284 1865.07 505.284 1871.01C504.892 1877.35 503.325 1882.1 500.974 1882.1C496.664 1882.1 494.313 1873.39 471.195 1769.22C461.399 1723.28 451.211 1683.67 449.252 1680.9C444.942 1675.75 411.636 1674.56 404.583 1679.31C401.84 1680.9 390.477 1726.45 378.722 1780.31C366.967 1834.18 355.996 1878.54 354.037 1878.54C351.686 1878.54 348.551 1871.01 346.984 1861.51C339.539 1822.29 308.584 1682.88 306.625 1679.71C305.449 1677.73 295.654 1676.14 285.074 1676.14C270.968 1676.14 265.091 1677.73 263.131 1682.48Z" fill="#D92C1E"/>
<path d="M631.235 1679.32C627.702 1682.1 626.525 1710.68 627.31 1809.52L628.487 1936.14H650.077H671.667L672.845 1809.52C673.63 1710.68 672.452 1682.1 668.919 1679.32C666.171 1677.73 657.535 1676.14 650.077 1676.14C642.619 1676.14 633.983 1677.73 631.235 1679.32Z" fill="#D92C1E"/>
<path d="M1181.87 1683.37C1175.99 1690.1 1175.59 1703.58 1176.38 1813.33L1177.56 1935.77L1198.34 1936.96L1218.74 1938.14V1831.16C1218.74 1766.18 1220.31 1723.78 1222.27 1723.78C1224.62 1723.78 1232.47 1744.78 1240.31 1770.14C1265.42 1852.16 1290.52 1927.84 1294.44 1932.6C1296.4 1935.37 1306.6 1937.75 1316.8 1937.75H1335.62L1355.63 1879.11C1366.61 1847.01 1381.91 1800.26 1389.75 1775.29C1397.6 1750.33 1405.05 1727.75 1406.62 1725.77C1407.79 1723.39 1409.76 1769.75 1410.93 1828.78L1412.89 1935.77L1433.68 1936.96L1454.08 1938.14V1811.35C1454.08 1685.75 1454.08 1684.56 1445.84 1679.8C1432.9 1673.07 1392.5 1677.03 1383.48 1686.54C1379.55 1690.5 1365.83 1725.37 1352.88 1763.41C1321.11 1856.52 1320.33 1858.5 1316.8 1858.5C1315.23 1858.5 1300.72 1820.07 1285.03 1772.92C1257.18 1690.9 1255.61 1686.93 1243.45 1681.78C1224.23 1673.46 1190.11 1674.65 1181.87 1683.37Z" fill="#D92C1E"/>
<path d="M1573.45 1679.31C1570.71 1680.9 1557.77 1717.02 1544.45 1759.5C1531.12 1801.98 1513.09 1857.95 1504.47 1884.15C1494.67 1913.93 1490.35 1932.59 1492.71 1934.97C1494.67 1936.95 1504.86 1938.14 1515.44 1937.35L1534.26 1936.16L1542.88 1908.37L1551.5 1880.58L1598.54 1879.39L1645.58 1878.2L1654.59 1908.37L1663.22 1938.14H1685.95C1705.55 1938.14 1709.08 1936.95 1709.08 1931C1709.08 1923.46 1634.21 1689.24 1629.51 1680.9C1625.98 1675.74 1580.9 1674.15 1573.45 1679.31ZM1616.57 1782.13C1624.41 1808.73 1630.68 1832.55 1630.68 1834.53C1630.68 1837.31 1618.14 1838.9 1596.97 1838.9H1563.26L1565.61 1827.78C1574.24 1792.85 1596.58 1727.35 1598.93 1730.13C1600.89 1732.11 1608.73 1755.53 1616.57 1782.13Z" fill="#D92C1E"/>
<path d="M1751.15 1680.84C1744.47 1684.79 1744.08 1695.44 1744.08 1806.76C1744.08 1910.18 1744.86 1929.13 1749.97 1933.47C1754.29 1937.03 1770 1937.82 1806.13 1936.63C1854.05 1935.45 1857.98 1934.66 1883.12 1922.03C1927.89 1899.92 1942.82 1865.58 1939.67 1792.95C1938.1 1760.18 1936.14 1750.31 1927.5 1732.94C1915.72 1710.44 1893.33 1691.5 1870.16 1684.39C1849.34 1678.47 1759.4 1675.71 1751.15 1680.84ZM1847.37 1721.89C1880.37 1733.73 1892.94 1757.42 1893.33 1806.37C1893.33 1870.71 1869.37 1897.95 1812.03 1897.95H1791.21V1807.16V1716.37H1812.03C1823.02 1716.76 1839.13 1719.13 1847.37 1721.89Z" fill="#D92C1E"/>
<path d="M1991.81 1681.34C1988.26 1684.91 1987.08 1717.41 1987.08 1809.74C1987.08 1918.73 1987.87 1933.79 1993.38 1935.77C1996.93 1936.96 2027.67 1938.14 2061.95 1938.14H2124.22L2126.19 1926.65C2127.37 1920.71 2127.37 1911.59 2126.19 1906.84C2124.22 1898.91 2121.86 1898.51 2079.29 1898.51H2034.37V1858.88V1819.25H2074.17H2113.58L2112.4 1802.21L2111.22 1785.57L2072.99 1784.38L2034.37 1783.19V1749.9V1716.61L2078.9 1715.42L2123.04 1714.24V1696.4V1678.57L2059.98 1677.38C2014.27 1676.59 1995.35 1677.78 1991.81 1681.34Z" fill="#D92C1E"/>
<path d="M2246.7 1687.49C2249.44 1701.72 2294.12 1874.1 2304.7 1910.47L2312.93 1938.14L2331.35 1936.96C2352.51 1935.38 2347.81 1948.03 2377.2 1821.12C2387.39 1777.63 2396.79 1740.47 2398.36 1738.89C2399.93 1737.3 2410.51 1770.91 2421.87 1814C2433.24 1857.1 2445.38 1902.56 2448.91 1914.82L2454.79 1937.75H2471.64C2481.05 1937.75 2489.67 1936.17 2490.84 1933.8C2499.07 1920.35 2559.81 1683.54 2555.9 1679.58C2553.94 1677.61 2547.67 1676.82 2541.4 1677.61L2530.42 1678.79L2504.56 1786.72C2482.22 1879.24 2474.38 1905.73 2472.82 1897.82C2472.82 1897.03 2459.88 1847.21 2444.6 1787.51L2416.39 1678.79L2401.89 1677.61C2388.17 1676.42 2387.39 1677.21 2383.47 1691.44C2374.45 1726.63 2339.97 1869.75 2337.62 1883.19C2336.44 1891.49 2333.7 1898.21 2332.13 1898.21C2328.6 1898.21 2324.68 1883.98 2295.69 1763.79L2275.31 1678.79L2260.02 1677.61C2245.52 1676.42 2245.13 1676.82 2246.7 1687.49Z" fill="black"/>
<path d="M3283.83 1678.83C3282.26 1680.42 3281.08 1686.76 3281.08 1693.11V1704.21H3316.47H3351.86V1814.83C3351.86 1875.89 3353.04 1928.23 3354.22 1931.8C3355.8 1935.77 3361.3 1938.14 3369.95 1938.14H3383.32V1821.18V1704.61L3419.9 1703.42L3456.08 1702.23V1690.33V1678.44L3371.13 1677.25C3324.73 1676.85 3285.4 1677.64 3283.83 1678.83Z" fill="black"/>
<path d="M2778.02 1698.91C2776.45 1700.1 2775.26 1711.98 2775.26 1724.64V1747.59H2761.08C2748.07 1747.59 2747.29 1748.39 2748.47 1758.28C2749.26 1767.38 2751.62 1769.76 2762.65 1770.55L2775.26 1771.74V1829.91C2775.66 1896.4 2778.81 1915 2792.21 1928.85C2800.09 1936.77 2806.4 1938.75 2823.34 1939.14C2848.95 1939.14 2854.08 1936.37 2854.08 1921.73C2854.08 1910.25 2853.68 1910.25 2837.13 1912.23C2823.34 1914.21 2819.4 1913.02 2812.7 1905.9C2805.61 1898.38 2804.82 1890.86 2803.64 1842.97C2802.45 1769.36 2801.67 1771.34 2830.43 1771.34C2854.08 1771.34 2854.08 1771.34 2854.08 1759.47C2854.08 1747.59 2854.08 1747.59 2830.83 1747.59C2804.43 1747.59 2802.85 1746.01 2802.85 1715.54C2802.85 1696.94 2802.45 1696.14 2791.82 1696.14C2785.51 1696.14 2779.21 1697.33 2778.02 1698.91Z" fill="black"/>
<path d="M3977.34 1701.3C3976.56 1704.07 3974.99 1715.16 3974.6 1726.24C3973.43 1745.63 3973.04 1746.03 3959.75 1748C3948.42 1749.59 3946.08 1751.57 3946.08 1759.88C3946.08 1768.19 3948.42 1770.17 3959.75 1771.75L3973.43 1773.73L3975.39 1842.99C3976.95 1900.37 3978.51 1914.62 3983.98 1923.33C4000.4 1947.87 4057.84 1944.7 4052.76 1919.37C4051.59 1913.83 4047.68 1912.25 4032.05 1912.25C4004.3 1912.25 4002.35 1907.1 4003.91 1833.09L4004.69 1773.73L4028.14 1771.75C4050.02 1769.77 4051.59 1768.98 4051.59 1759.88C4051.59 1750.38 4050.42 1749.98 4027.36 1748.8L4003.13 1747.61L4001.96 1723.07C4000.79 1699.72 4000.4 1698.53 3989.84 1697.35C3983.59 1696.55 3978.51 1698.14 3977.34 1701.3Z" fill="black"/>
<path d="M4801.36 1701.3C4800.57 1704.07 4799.01 1715.15 4798.62 1726.23C4797.45 1745.62 4797.05 1746.01 4783.76 1747.99C4772.42 1749.58 4770.08 1751.55 4770.08 1759.86C4770.08 1768.17 4772.42 1770.15 4783.76 1771.73L4797.45 1773.71L4799.4 1842.96C4800.96 1900.33 4802.53 1914.57 4808 1923.28C4816.6 1935.94 4840.84 1943.46 4858.83 1938.71C4869.78 1935.94 4872.12 1933.57 4872.9 1922.88L4874.08 1910.22L4856.87 1912.59C4829.11 1916.55 4826.77 1910.22 4826.77 1834.25V1771.73H4850.23H4873.69V1759.86C4873.69 1747.99 4873.69 1747.99 4850.23 1747.99H4827.16L4825.99 1723.07C4824.81 1699.72 4824.42 1698.53 4813.87 1697.35C4807.61 1696.55 4802.53 1698.14 4801.36 1701.3Z" fill="black"/>
<path d="M2613.37 1749.34C2594.05 1756.47 2586.96 1762.81 2586.96 1773.5C2586.96 1786.96 2590.11 1787.36 2609.42 1777.06C2629.13 1766.77 2659.48 1764.39 2670.12 1772.71C2679.97 1780.23 2685.49 1793.69 2685.49 1810.33V1825.77L2655.54 1828.15C2600.75 1832.9 2579.08 1849.92 2579.08 1887.54C2579.08 1934.27 2633.47 1957.63 2672.09 1927.94C2687.85 1915.66 2688.64 1915.66 2690.22 1926.75C2691.01 1933.48 2694.55 1936.25 2702.44 1937.04L2713.08 1938.23V1859.82C2713.08 1788.15 2712.29 1780.23 2705.19 1768.35C2700.86 1761.22 2691.01 1752.51 2683.52 1749.34C2666.57 1742.61 2633.07 1742.22 2613.37 1749.34ZM2684.7 1871.31C2685.88 1893.88 2685.88 1893.88 2669.33 1906.16C2641.35 1926.35 2612.97 1918.83 2608.24 1889.92C2603.91 1863.39 2629.92 1845.97 2671.69 1848.34C2683.12 1848.74 2683.52 1849.13 2684.7 1871.31Z" fill="black"/>
<path d="M2930.49 1749.34C2900.23 1762.79 2884.5 1794.45 2884.11 1840.75C2883.33 1889.43 2895.9 1916.34 2926.56 1932.96C2942.28 1941.27 2991.8 1941.27 3012.24 1932.56C3024.43 1927.42 3026.78 1924.25 3026.78 1914.36C3026.78 1907.63 3026.39 1902.09 3025.6 1902.09C3025.21 1902.09 3014.6 1905.65 3002.02 1910.01C2974.12 1919.9 2962.72 1919.9 2942.28 1910.01C2923.81 1900.91 2912.8 1882.31 2912.8 1860.54V1847.09L2972.94 1845.9L3032.68 1844.71L3033.86 1828.09C3036.22 1793.27 3019.32 1760.42 2992.59 1749.34C2976.48 1742.22 2945.82 1742.61 2930.49 1749.34ZM2991.8 1777.83C3000.84 1785.75 3009.1 1811.87 3005.95 1820.57C3002.42 1829.67 2917.52 1830.07 2914.38 1820.97C2908.48 1805.53 2932.06 1769.52 2949.36 1766.75C2962.72 1764.77 2983.16 1769.92 2991.8 1777.83Z" fill="black"/>
<path d="M3129.34 1758C3112.49 1775.03 3108.58 1775.42 3108.58 1759.98C3108.58 1749.29 3107.4 1748.1 3096.83 1748.1H3085.08V1843.12V1938.14H3098.79H3112.49V1872.82V1807.49L3130.12 1789.28C3146.57 1771.86 3148.14 1771.07 3163.41 1773.44L3179.08 1775.82V1762.36C3179.08 1747.71 3174.38 1744.14 3154.79 1744.14C3146.57 1744.14 3139.13 1748.1 3129.34 1758Z" fill="black"/>
<path d="M3521.78 1749.13C3517.08 1751.9 3510.42 1758.23 3506.89 1762.97C3498.67 1774.83 3493.58 1774.04 3493.58 1759.81C3493.58 1749.13 3492.4 1747.94 3481.83 1747.94H3470.08V1843.24V1938.14L3483 1936.96L3495.54 1935.77L3496.71 1872.11L3497.49 1808.05L3513.94 1789.46C3529.61 1771.27 3530.79 1770.88 3547.24 1773.25L3564.08 1775.62V1762.18C3564.08 1753.48 3561.73 1747.94 3557.81 1746.36C3548.02 1742.41 3531.57 1743.99 3521.78 1749.13Z" fill="black"/>
<path d="M3631.87 1751.3C3601.37 1765.57 3585.33 1804.41 3588.46 1856.34C3592.76 1921.34 3631.87 1951.46 3695.22 1937.99C3715.16 1933.63 3732.37 1923.32 3732.37 1915C3731.98 1904.69 3725.72 1902.32 3712.04 1907.86C3704.61 1911.04 3689.75 1915 3679.19 1916.19C3645.17 1920.55 3620.14 1899.14 3617.79 1864.26L3617.01 1848.81L3674.49 1847.62C3726.5 1846.82 3732.76 1846.03 3736.28 1839.29C3741.76 1828.59 3733.93 1788.56 3723.38 1772.31C3705.78 1745.75 3664.72 1736.24 3631.87 1751.3ZM3690.14 1775.48C3701.87 1784.6 3710.08 1802.83 3708.12 1815.91C3706.95 1824.63 3705.78 1825.02 3664.33 1826.21C3640.86 1826.61 3620.14 1825.82 3618.57 1824.23C3613.1 1818.68 3622.88 1790.54 3634.61 1778.65C3648.68 1764.78 3674.89 1763.19 3690.14 1775.48Z" fill="black"/>
<path d="M3814.96 1749.31C3789.45 1757.99 3785.92 1762.33 3787.1 1780.87C3787.49 1787.18 3789.45 1786.79 3807.11 1777.71C3833 1764.7 3858.9 1764.3 3871.45 1776.92C3880.48 1786 3888.71 1817.16 3883.61 1822.29C3882.04 1823.87 3865.17 1827.02 3846.34 1829.39C3795.34 1835.7 3778.08 1850.29 3778.08 1886.58C3778.08 1933.52 3829.08 1956.01 3869.88 1927.61C3887.54 1915.38 3889.5 1915.38 3889.5 1928C3889.5 1936.68 3891.07 1937.86 3900.48 1936.68L3911.08 1935.5V1860.55C3911.08 1778.9 3909.12 1769.82 3888.32 1754.44C3875.38 1744.97 3835.75 1741.82 3814.96 1749.31ZM3883.22 1853.06C3887.93 1865.68 3885.18 1885.4 3877.34 1895.66C3851.84 1928.4 3807.11 1922.48 3807.11 1886.19C3807.11 1865.68 3817.31 1853.84 3838.89 1850.69C3869.1 1845.56 3880.48 1846.35 3883.22 1853.06Z" fill="black"/>
<path d="M4154 1748.91C4147.72 1751.69 4138.69 1758.04 4134.77 1762.8C4124.56 1774.3 4120.63 1773.11 4120.63 1759.23C4120.63 1748.52 4119.46 1747.32 4108.86 1747.32H4097.08V1842.93V1938.14L4110.03 1936.95L4122.6 1935.76L4124.56 1867.53C4126.52 1801.67 4126.91 1799.29 4136.34 1788.98C4159.11 1764.38 4180.7 1762.4 4196.41 1784.62C4204.26 1796.12 4205.04 1802.07 4206.22 1867.53L4207.79 1938.14L4219.96 1936.95L4232.52 1935.76L4234.49 1867.53C4236.45 1801.67 4236.84 1799.29 4246.27 1788.98C4268.25 1765.18 4291.41 1762.4 4304.37 1782.24C4309.87 1790.57 4311.44 1806.04 4313.01 1864.36L4314.97 1935.76L4327.53 1936.95C4339.7 1938.14 4340.1 1937.75 4342.85 1919.5C4344.42 1909.18 4344.42 1876.26 4343.24 1846.11C4341.67 1803.66 4339.7 1787.79 4333.42 1773.9C4317.33 1737.01 4275.71 1732.65 4243.12 1764.38L4230.17 1777.08L4221.92 1765.97C4206.61 1744.55 4179.13 1737.8 4154 1748.91Z" fill="black"/>
<path d="M4434.38 1752.77C4420.22 1760.27 4414.32 1766.58 4404.88 1785.12C4394.26 1806.03 4393.08 1812.35 4393.08 1844.3C4393.08 1899.54 4409.6 1926.36 4450.12 1937.41C4470.18 1942.94 4504.8 1939.78 4524.07 1930.7C4533.91 1925.97 4536.66 1922.42 4536.66 1913.35C4536.66 1899.93 4537.45 1899.93 4516.2 1908.61C4492.99 1918.08 4459.16 1917.69 4444.61 1907.82C4431.23 1899.14 4422.58 1880.2 4422.58 1860.87V1847.06L4482.77 1845.88L4542.56 1844.7L4543.74 1831.28C4546.89 1798.54 4527.61 1759.87 4502.83 1749.62C4483.16 1741.33 4454.44 1742.51 4434.38 1752.77ZM4498.9 1778.02C4509.52 1788.67 4519.35 1816.29 4515.02 1823C4513.45 1825.37 4492.6 1826.94 4467.43 1826.94H4422.58V1817.47C4422.58 1802.88 4429.27 1788.28 4440.68 1777.63C4456.02 1763.42 4484.34 1763.82 4498.9 1778.02Z" fill="black"/>
<path d="M4651.83 1749.46C4645.56 1752.23 4636.55 1758.56 4632.64 1763.31C4622.45 1774.78 4618.54 1773.59 4618.54 1759.35C4618.54 1748.28 4617.75 1747.49 4606 1748.67L4593.08 1749.86V1842.82V1935.77L4604.44 1936.96C4610.7 1937.75 4616.97 1936.17 4618.93 1933C4620.89 1930.23 4622.45 1898.98 4622.45 1864.18V1800.09L4638.12 1785.85C4646.74 1778.34 4657.7 1770.82 4663.19 1769.24C4675.72 1766.08 4696.09 1777.15 4701.57 1790.6C4703.92 1796.53 4706.66 1832.13 4707.84 1869.71L4709.4 1938.14L4721.94 1936.96L4734.08 1935.77V1862.59C4734.08 1796.53 4733.29 1787.83 4725.85 1773.59C4712.54 1747.49 4680.42 1736.81 4651.83 1749.46Z" fill="black"/>
<path d="M1466.77 593.734H1324.95C1305.31 593.734 1286.69 590.088 1269.08 582.877C1251.47 575.625 1236.2 565.587 1223.28 552.681C1210.35 539.775 1200.09 524.411 1192.5 506.547C1184.9 488.684 1181.11 468.895 1181.11 447.18C1181.11 429.972 1184.13 412.682 1190.15 395.269C1196.17 377.856 1205.22 362.123 1217.26 348.111C1229.29 334.099 1244.44 322.668 1262.74 313.859C1281 305.05 1302.41 300.625 1326.97 300.625C1348.37 300.625 1367.64 304.558 1384.81 312.507C1401.98 320.414 1416.8 330.944 1429.28 344.055C1441.32 356.264 1450.89 371.628 1458.04 390.188C1463.82 406.454 1466.73 461.438 1466.73 555.057V593.734H1466.77Z" fill="#AFDEF7"/>
</svg>
